<svg id="Layer_1" data-name="Layer 1" xmlns="http://www.w3.org/2000/svg" viewBox="0 0 24 24" xml:space="preserve" width="63px" height="49px" class="">><defs><style>.cls-1{fill:#000000;}</style></defs><title>icon-pobox</title><g id="Mailbox"><path class="cls-1" d="M22.5,21H1.5A1.5,1.5,0,0,1,0,19.5v-6A4.505,4.505,0,0,1,4.5,9h15A4.505,4.505,0,0,1,24,13.5v6A1.5,1.5,0,0,1,22.5,21ZM4.5,10A3.5,3.5,0,0,0,1,13.5v6a.5.5,0,0,0,.5.5h21a.5.5,0,0,0,.5-.5v-6A3.5,3.5,0,0,0,19.5,10Z"/><path class="cls-1" d="M7.5,21a.5.5,0,0,1,0-1,.5.5,0,0,0,.5-.5v-6A3.5,3.5,0,0,0,4.5,10a.5.5,0,0,1,0-1A4.505,4.505,0,0,1,9,13.5v6A1.5,1.5,0,0,1,7.5,21Z"/><path class="cls-1" d="M12.5,14a.5.5,0,0,1-.5-.5V3.5a.5.5,0,0,1,.5-.5h5a.5.5,0,0,1,.5.5v3a.5.5,0,0,1-.5.5H13v6.5A.5.5,0,0,1,12.5,14ZM13,6h4V4H13Z"/></g></svg>